<svg xmlns="http://www.w3.org/2000/svg" width="3752" height="1640" viewBox="0 0 2814 1230" preserveAspectRatio="xMidYMid meet" xmlns:v="https://vecta.io/nano"><g fill="#e42520"><rect x="2404.405" y="320.707" width="1493.243" height="449.941" transform="matrix(1 0 .009573 1 -2084.465088 -234.935883)" rx="161.324"/><rect x="317.376" y="106.485" width="197.105" height="149.394" transform="matrix(1 0 .009573 1 -47.601517 287.645569)" rx="161.324"/></g><g fill="#ffdb05"><rect x="3346.886" y="447.966" width="2078.569" height="628.476" transform="matrix(1 0 .009573 1 -2794.250977 87.614388)" rx="74.503"/><rect x="553.944" y="198.24" width="344.025" height="278.121" transform="matrix(1 0 .009573 1 1825.701172 680.757751)" rx="74.503"/></g><g fill="#294b9a"><path d="M855 .7c-65.1 3.8-129 26.4-181.2 63.9-6.4 4.6-11.9 8.4-12.2 8.4s-2.3-3.5-4.5-7.8c-11.6-23-34.5-43.3-59.1-52.2-17.8-6.5-14.2-6.3-97.5-6.7-49.6-.3-79.2-.1-85.1.6-37.9 4.4-70.2 28-87 63.5-3.9 8.2-11.4 35.3-56.5 201.8l-53.4 200.7c-6.5 36.8 8.4 76.7 37.8 101.2 3.2 2.7 5.6 4.9 5.5 4.9-.2 0-4.4-.9-9.3-1.9-61.8-13.5-129.4 7.5-174.1 54-22.3 23.2-39 53.4-46.7 84.4-4.6 18.4-5.2 23.9-5.1 47.5 0 20.4.2 23.7 2.7 35 3.6 17.1 9.6 34 17.4 49.2l6.5 12.7-6.4 7.3c-23.6 27-39 60.9-44.3 96.9-2 13.8-2 39 .1 52.8 11.4 78.1 70 140.3 146.8 156.1 61.7 12.6 125.6-6.4 170-50.6 6.8-6.8 18.9-20.7 20.1-23.2.1-.1 4.4 1.8 9.6 4.2 28 13 60.5 18.9 91.1 16.5 20.6-1.5 43.9-7.1 60.7-14.5 2.9-1.3 5.5-2.4 5.6-2.4s0 3.4-.3 7.5c-1.3 21 6.2 48.2 18.7 67.2 17.3 26.2 42.1 43.1 73.1 49.9 8 1.8 15 1.9 125.5 1.9h117l9.6-2.6c5.2-1.5 12.5-3.9 16.1-5.3l6.6-2.7 7.4 2.9c8.5 3.4 17.4 5.7 27.3 7.2 9.5 1.3 226.5 1.3 236 0 3.9-.6 10.7-2 15.2-3.1l8.3-2.1 7.7 2c4.3 1.2 11.6 2.6 16.3 3.2 5.9.8 72 1 220 .7l217.7-1.9c5.7-1.4 6.8-1.4 12 0 5.1 1.4 20.2 1.7 124.8 2l128.5-.8c23.7-2.9 46-13.2 63.3-29.1l6.8-6.1 6.2 5.9c15.8 15.1 39.7 26.3 62.9 29.3 5.8.8 42 .9 118.8.5l120-.3c5.2.1 99.7.2 210 .3h200.5l10.6-2.7c41.2-10.5 72.4-39.8 83.4-78.6 1.4-4.8 10-49.4 19.1-99.2 18.5-101 19.2-106.6 16-126.5-7.6-45.9-41.7-84.4-87.1-98.1-8.5-2.6-10.4-2.8-33.2-3.2-21.8-.3-24.3-.6-24.3-2 0-1 10.4-57.5 23.2-125.7l23.6-137.5c.5-16.1-1.2-27.2-6.4-43.2-14.2-42.6-53.7-74.2-98.5-78.8-6.1-.6-43.8-1-96.1-1h-86l.6-2.3c3.6-13 5.2-36.7 3.7-53.2-2.4-25.3-8-44.7-19.1-67-29.3-58.5-84.7-95.7-151.1-101.6-38.3-3.3-82.1 7.5-114.8 28.4l-5.4 3.4-5.6-11.1c-27.7-55.1-78.6-91.9-140.1-101.2-13.7-2-39.3-2-53 0-19.8 3-45.7 11.3-59.9 19.2-2.4 1.3-4.5 2.4-4.7 2.4-.1 0-2.6-4.4-5.5-9.8-16.9-31.2-42.2-60.5-71-82.2-39.5-29.7-85.6-47.2-142.4-54.2-14.4-1.7-61.5-1.7-75.5 0-33.7 4.2-63.7 11.7-93 23.2-13.9 5.5-15 5.5-20.2 1.6-11.9-9.1-29.1-16.9-44.8-20.4-6.9-1.6-21-1.7-165.5-1.7h-158l-9.8 2.7c-10.5 2.9-25.6 9.6-33.4 14.9-2.6 1.8-8.7 6.5-13.5 10.6l-8.7 7.4-10.9-6.1C979.3 10.3 915.7-2.9 855 .7zm55.5 95.7c55.9 8.1 98.2 33 125.7 74 17.6 26.3 25.5 52.7 26.5 88.6 1.6 56.9-16.2 112.8-50.5 158.3-9.2 12.2-27.5 31.3-40.2 41.9-34.4 28.9-77 47.5-124.5 54.4-15 2.2-55.2 2.5-69.5.5-47.1-6.5-80.5-22.1-108.5-50.5-34.3-34.7-50.6-85.1-45.4-140.6 5.4-59 28.9-110.4 69.8-153.3 29.9-31.2 71.4-55.7 113.5-66.8 13.5-3.5 31.2-6.7 44.3-7.9s46.4-.4 58.8 1.4zm749 1.5c42 6.4 75.3 22.3 101.7 48.4 31.8 31.5 47.8 71.3 47.8 119.1 0 39.6-8.5 76.2-25.9 112.1-12.3 25.4-26.4 45.1-46.8 65.9-38.3 38.7-81.9 61.3-136.4 70.7-15.6 2.7-54.1 3.7-71.1 2-55.5-5.8-98.8-28.5-127.8-67.1-8.3-11.1-19.5-33.1-23.8-47-21.2-67.4-2.1-153.8 47.3-214.5 8.4-10.4 26.9-28.9 36.7-36.9 38.1-30.9 83.8-49.3 135.8-54.6 13.6-1.4 47.7-.4 62.5 1.9zm-1088.8 7.7c4.4 3.3 7.3 8.2 7.3 12.5 0 2.7-58.9 222.6-64.6 241.1-.5 1.7 2.2 1.8 47.8 1.8 44 0 48.6.2 51.8 1.8 4.9 2.4 8 7.5 8 12.9 0 5.8-31.3 120.9-33.8 124.2-1 1.4-3.1 3.4-4.6 4.5-2.7 2.1-3 2.1-132.6 2.1s-129.9 0-132.6-2.1c-4.2-3.1-6.5-6.7-7.1-11-.4-3.2 9.6-41.4 49.2-187.4l51.2-188.8c1.8-6.3 6.3-11.8 10.7-13.1 1.8-.6 33.2-.9 74.8-.8 71 .2 71.7.2 74.5 2.3zm841.6-1.2c4.4 1.8 8.5 6.8 9.3 11.3.6 3-2.3 14.7-15.2 62.2-9.1 33.3-16.8 59.7-17.9 61.4s-3.3 4-4.8 5.1c-2.7 2-4.1 2.1-37.8 2.4l-34.9.3-1.5 5.2-34 124.7-34.7 122.2c-4.2 6-1 5.8-80 5.8-70.4 0-72.4-.1-75.6-2-4.4-2.7-7.2-7.6-7.2-12.7 0-3 56.6-214.5 64.6-241.5.5-1.6-1.9-1.7-31.5-2-30.5-.3-32.1-.4-34.7-2.4-1.5-1.1-3.6-3.2-4.7-4.6-4.2-5.7-3.9-7.5 13.6-70.1 17.4-62.2 17.4-62.3 24.2-65.3 4.5-2 298-2 302.8 0zm582 119c33.1 9.9 56.6 34.7 64.9 68.3 1.6 6.6 2.1 11.9 2.1 21.3 0 25.3-8.8 47.2-26.2 65.3-20.1 21-50.2 32.1-77.7 28.7-13.3-1.6-19.8-3.6-31.9-9.5-18.8-9.1-32.3-22.5-41.5-41-8-16.2-9.5-23-9.4-42.5 0-15.1.3-17.3 2.8-25.5 9.4-30.9 30.2-52.8 60.6-63.7 10.6-3.8 17.8-4.7 33-4.4 12.1.3 15.9.8 23.3 3zm275.2 81.6c50.2 13.7 79.4 65 65.5 114.9-12 42.7-51.5 71.1-95.8 68.8-63.7-3.3-104.7-67.7-81.1-127.4 8.1-20.6 25.5-39.6 45.4-49.5 5.9-3 18.9-7.3 26-8.7 8.5-1.7 30.8-.6 40 1.9zm-96 252.2c.3 1.3 16.5 126 36 277.3l36 278.2.6 3.3h-99.4-99.3l-1.2-25.8-1.9-37-.6-11.2H1977h-66.7l-15 36.8-14.9 36.7-108.8.3c-59.8.1-108.5-.1-108.3-.5.6-1 283.6-548.1 287.1-555.1l2.6-5.2h110 110l.5 2.2zm425.5-.8c0 .7-69.9 382.9-70.5 385.3l-.5 2.3h85 85.1l-.7 3.7-15.9 86.3-15.1 82.5-187 .3-187 .2 51-280.5 51-280.5h102.3l102.3.4zm-1599.5 3c31.7 3.9 53.2 8.5 75.7 16.2 60.1 20.6 96.7 58.5 107.8 111.8 4.3 20.5 4.8 46 1.5 70.3-5.9 42.5-23.5 76.6-53.7 103.9-18.4 16.6-44.4 29.9-73.1 37.4-7.1 1.9-8.7 2.6-8.2 3.9 2.3 5.7 79.5 212.2 79.5 212.6 0 .3-46.7.4-103.7.3l-103.7-.3-30.2-101L861 914.4c0 .5-8.3 45.6-18.5 100.2L824 1115c0 .7-32.4 1-101 1-86.5 0-101-.2-101-1.4 0-1.7 101.9-554.5 102.5-556.4.4-1 24.8-1.2 130.7-.9l144.3 2.1zm691.7-1.9c.4.5-24.3 125.6-26.6 135l-.6 2.5h-91l-91 .9c0 1.2-8.9 61.1-9.6 64.3l-.6 2.8h85.6l85.6.7c0 .5-5.7 29-12.7 63.5l-12.8 62.8h-85.3l-85.7 1.2c-.6 1.8-10.5 69.4-10.5 71.8 0 2 1.2 2 99 2h99l-.5 2.2c-.6 2.7-27.5 149.6-27.5 150.3 0 .8-399.8.6-400.3-.3-.4-.7 101.6-555.9 102.7-558.7.5-1.3 23.2-1.5 191.4-1.5l191.4.5zM452.5 591.9c32 8.4 57.3 33.2 66.6 65.3 2.7 9.3 3.7 29.7 1.9 40.4-7 43.4-44 76.7-88.1 79.1-44.9 2.6-85.3-27.2-95.7-70.7-6.3-26.1-1.8-52 13-74.6 13.8-20.9 36.7-36.2 61.6-40.9 10.6-2 30.1-1.3 40.7 1.4zm-215 77c35.2 9.2 62.2 38 69.1 73.9 5.6 29-3.7 60.3-24.2 82.1-9.5 10.1-17.3 15.8-29.5 21.5-16.5 7.6-32.7 10.5-49.1 8.7-23.7-2.7-42.1-11.5-57.9-27.8-17.3-17.8-25.7-36.9-26.6-61.1-.6-14.6.7-24.1 4.9-36.2 11.9-33.7 40.9-57.5 77.3-63.3 6.9-1.2 28.1.2 36 2.2zm210.7 171.6c30.6 6.5 56.6 28.6 67.8 57.7 9 23.2 8.6 48.2-1.1 71.4-17.4 41.7-64.9 66.2-108.7 55.9-35.2-8.3-61.9-35.1-70.9-71.3-2.6-10.3-2.3-31.2.5-42.6 7-28.1 26.8-52.2 52.7-64.2 18.8-8.7 39.6-11.1 59.7-6.9zm-235.9 57.9c48.2 12.2 78 60.7 67.8 110.1-5.9 28.7-24.6 52.4-51.5 65.5-14.3 7-24.8 9.4-41.1 9.4-14.3-.1-23-1.6-34.1-6-29.6-11.6-51.2-37.2-57.6-68.4-2.8-13.4-2.1-31.8 1.6-44.5 7.9-26.4 25.1-47.2 49.1-59.3 7.6-3.8 21.1-8 29.5-9.2 9.7-1.3 25.7-.3 36.3 2.4zM845 249.6c-31.8 6.1-54.9 35.1-55.2 69.5-.1 15.1 3.3 24.3 12.1 32.2 9.5 8.5 24.5 11.6 40.6 8.2 22.3-4.7 42.1-23.3 50.1-47 3.6-10.9 4.5-26.7 1.9-36.1-3-11.1-11.4-20.3-22.3-24.5-5.6-2.1-21.1-3.4-27.2-2.3z"/><path d="M1587.8 251.5c-9 2-14.9 4.7-22.2 9.9-12.2 8.7-21.7 21.3-26 34.4-8 24.3-5.2 45.1 7.5 56.6 6.8 6.1 14.1 8.7 25.9 9.3 15.4.8 27.6-3 39.9-12.2 17.1-13 27.6-33.1 28.8-55.1.5-8.6.2-11.2-1.6-17.2-3.5-11.6-12.5-21-23.5-24.7-7.1-2.4-20.5-2.8-28.8-1zm438.9 501.8c-10.3 32.2-19.7 56.9-39.8 104.8l-20.9 50.3c0 .3 15.8.6 35.1.6h35.1l-.6-15.8-2.3-50.2c-.9-19-1.7-50.4-1.7-69.7l-.1-35.3-4.8 15.3zM901 696.6c0 .8-18.8 101.9-19.5 105.1l-.5 2.3h17.1c58.9 0 86.8-19.4 86.9-60.5 0-29.1-16.7-43-56-46.5-13-1.1-28-1.3-28-.4z"/></g><circle cx="187.763" cy="989.43" r="95.924" fill="#f19004"/><circle cx="213.247" cy="760.913" r="95.924" fill="#e3097e"/><circle cx="428.258" cy="682.564" r="94.945" fill="#1b9bd7"/><circle cx="427.258" cy="933.749" r="95.924" fill="#009540"/><circle cx="1967.16" cy="313.243" r="94.841" fill="#f19004"/><circle cx="2245.273" cy="396.176" r="94.841" fill="#58a5b0"/></svg>